<svg width="20" height="20" viewBox="0 0 20 20" fill="none" xmlns="http://www.w3.org/2000/svg">
  <!-- 플러그인 DNA 이중나선(확대) — "JPA 3D 뷰어에 추가". 좌하단 + (원형 없음, 위로 올려 살짝 겹침). -->
  <!-- 뒤 strand (보라) -->
  <path d="M10.5 1.5 C5.7 3.4 5.7 5.3 10.5 7.17 C15.3 9 15.3 11 10.5 12.83 C5.7 14.7 5.7 16.6 10.5 18.5"
        stroke="#8B5CF6" stroke-width="1.8" fill="none" stroke-linecap="round" opacity="0.9"/>
  <!-- 앞 strand (파랑) -->
  <path d="M10.5 1.5 C15.3 3.4 15.3 5.3 10.5 7.17 C5.7 9 5.7 11 10.5 12.83 C15.3 14.7 15.3 16.6 10.5 18.5"
        stroke="#3B82F6" stroke-width="2" fill="none" stroke-linecap="round"/>
  <!-- 교차점 노드 -->
  <circle cx="10.5" cy="1.5" r="1.1" fill="#3B82F6"/>
  <circle cx="10.5" cy="12.83" r="1.1" fill="#8B5CF6"/>
  <circle cx="10.5" cy="18.5" r="1.1" fill="#3B82F6"/>
  <!-- 좌하단 + : 배경색 헤일로(분리용) 위에 본체 -->
  <path d="M1.1 12 H6.9 M4 9.1 V14.9" stroke="#FFFFFF" stroke-width="3.6" stroke-linecap="round"/>
  <path d="M1.1 12 H6.9 M4 9.1 V14.9" stroke="#2563EB" stroke-width="2" stroke-linecap="round"/>
</svg>
